<svg width="27" height="27" viewBox="0 0 27 27" fill="none" xmlns="http://www.w3.org/2000/svg">
<path d="M13.3857 21.1401C12.7421 21.1388 12.1 21.0788 11.4674 20.961C11.2711 20.9296 11.0924 20.8294 10.9633 20.6782C10.8343 20.5271 10.7632 20.3349 10.7629 20.1362C10.765 20.0136 10.7936 19.8929 10.8467 19.7824C10.8998 19.6719 10.9762 19.5742 11.0706 19.496C11.165 19.4178 11.2752 19.361 11.3937 19.3294C11.5121 19.2978 11.636 19.2922 11.7568 19.3129C12.2939 19.414 12.8392 19.4656 13.3857 19.4669C18.3417 19.4669 22.646 15.1274 23.9996 13.6107C23.0977 12.601 22.1065 11.6748 21.0381 10.8432C20.9512 10.7759 20.8784 10.6921 20.8238 10.5967C20.7693 10.5013 20.7341 10.3961 20.7202 10.287C20.6922 10.0668 20.7528 9.84452 20.8887 9.66902C21.0246 9.49351 21.2247 9.37918 21.4449 9.35117C21.5539 9.3373 21.6646 9.34505 21.7707 9.37396C21.8767 9.40287 21.976 9.45239 22.0629 9.51968C23.425 10.5691 24.6643 11.7689 25.7573 13.0962C25.8726 13.2434 25.9352 13.4249 25.9352 13.6119C25.9352 13.7989 25.8726 13.9805 25.7573 14.1277C25.5323 14.413 20.1822 21.1401 13.3857 21.1401Z" fill="#00D1FF"/>
<path d="M22.3431 4.65315C22.1862 4.49631 21.9735 4.4082 21.7517 4.4082C21.5298 4.4082 21.3171 4.49631 21.1602 4.65315L18.4998 7.31354C17.4926 6.82817 16.4268 6.47499 15.3291 6.26277C14.6883 6.14228 14.0377 6.08151 13.3856 6.08123C6.58909 6.08123 1.23902 12.8083 1.01481 13.0945C0.899546 13.2417 0.836914 13.4233 0.836914 13.6102C0.836914 13.7972 0.899546 13.9788 1.01481 14.126C2.10679 15.4521 3.34499 16.6508 4.7059 17.6991C5.34967 18.2037 6.02415 18.6678 6.72545 19.0887L4.42815 21.3852C4.34824 21.4624 4.28451 21.5547 4.24066 21.6567C4.19682 21.7588 4.17374 21.8686 4.17277 21.9797C4.17181 22.0908 4.19298 22.2009 4.23504 22.3037C4.27711 22.4065 4.33923 22.5 4.41778 22.5785C4.49633 22.6571 4.58974 22.7192 4.69255 22.7612C4.79537 22.8033 4.90553 22.8245 5.01661 22.8235C5.1277 22.8225 5.23748 22.7995 5.33954 22.7556C5.44161 22.7118 5.53393 22.648 5.6111 22.5681L22.3431 5.8361C22.5 5.67922 22.5881 5.46646 22.5881 5.24463C22.5881 5.02279 22.5 4.81003 22.3431 4.65315ZM5.73325 16.379C4.66483 15.5471 3.67362 14.6206 2.77168 13.6106C4.1253 12.0947 8.42961 7.75443 13.3856 7.75443C13.9361 7.75487 14.4853 7.8064 15.0262 7.90837C15.7835 8.05245 16.5234 8.27681 17.2332 8.57765L15.6922 10.1187C14.8878 9.5872 13.9246 9.34988 12.9654 9.44684C12.0062 9.54381 11.11 9.96911 10.4283 10.6508C9.74662 11.3325 9.32132 12.2287 9.22435 13.1879C9.12739 14.1471 9.36471 15.1103 9.89618 15.9146L7.94773 17.8664C7.17292 17.4275 6.43262 16.9302 5.73325 16.379ZM11.1268 14.6848C10.9638 14.3501 10.878 13.983 10.8758 13.6106C10.876 12.9469 11.1382 12.3101 11.6054 11.8387C11.9778 11.4845 12.4477 11.2499 12.9546 11.1649C13.4615 11.0799 13.9822 11.1485 14.4498 11.3619L11.1268 14.6848Z" fill="#00D1FF"/>
</svg>
