<svg width="22" height="27" viewBox="0 0 22 27" fill="none" xmlns="http://www.w3.org/2000/svg">
<path d="M11.1948 15.0101C10.7964 15.0054 10.4062 15.1229 10.0766 15.3468C9.74706 15.5706 9.49398 15.89 9.35144 16.262C9.20891 16.6341 9.18376 17.0408 9.27939 17.4276C9.37502 17.8143 9.58684 18.1625 9.88633 18.4252V20.244C9.88633 20.591 10.0242 20.9238 10.2696 21.1692C10.515 21.4146 10.8478 21.5524 11.1948 21.5524C11.5418 21.5524 11.8746 21.4146 12.12 21.1692C12.3654 20.9238 12.5033 20.591 12.5033 20.244V18.4252C12.8028 18.1625 13.0146 17.8143 13.1102 17.4276C13.2058 17.0408 13.1807 16.6341 13.0381 16.262C12.8956 15.89 12.6425 15.5706 12.313 15.3468C11.9834 15.1229 11.5932 15.0054 11.1948 15.0101ZM17.7371 9.77622V7.15928C17.7371 5.42415 17.0479 3.76008 15.8209 2.53315C14.594 1.30622 12.9299 0.616943 11.1948 0.616943C9.45966 0.616943 7.79559 1.30622 6.56866 2.53315C5.34173 3.76008 4.65245 5.42415 4.65245 7.15928V9.77622C3.61137 9.77622 2.61293 10.1898 1.87678 10.9259C1.14062 11.6621 0.727051 12.6605 0.727051 13.7016V22.8609C0.727051 23.902 1.14062 24.9004 1.87678 25.6366C2.61293 26.3727 3.61137 26.7863 4.65245 26.7863H17.7371C18.7782 26.7863 19.7767 26.3727 20.5128 25.6366C21.249 24.9004 21.6625 23.902 21.6625 22.8609V13.7016C21.6625 12.6605 21.249 11.6621 20.5128 10.9259C19.7767 10.1898 18.7782 9.77622 17.7371 9.77622ZM7.26939 7.15928C7.26939 6.1182 7.68296 5.11976 8.41911 4.3836C9.15527 3.64745 10.1537 3.23388 11.1948 3.23388C12.2359 3.23388 13.2343 3.64745 13.9705 4.3836C14.7066 5.11976 15.1202 6.1182 15.1202 7.15928V9.77622H7.26939V7.15928ZM19.0456 22.8609C19.0456 23.2079 18.9077 23.5407 18.6624 23.7861C18.417 24.0315 18.0842 24.1694 17.7371 24.1694H4.65245C4.30543 24.1694 3.97261 24.0315 3.72723 23.7861C3.48184 23.5407 3.34399 23.2079 3.34399 22.8609V13.7016C3.34399 13.3546 3.48184 13.0218 3.72723 12.7764C3.97261 12.531 4.30543 12.3932 4.65245 12.3932H17.7371C18.0842 12.3932 18.417 12.531 18.6624 12.7764C18.9077 13.0218 19.0456 13.3546 19.0456 13.7016V22.8609Z" fill="#00D1FF"/>
</svg>
