<svg width="26" height="18" viewBox="0 0 26 18" fill="none" xmlns="http://www.w3.org/2000/svg">
<g clip-path="url(#clip0_6_32)">
<path d="M1.21921 9.00178L2.60955 10.8699C8.34075 18.5704 17.6646 18.5704 23.3958 10.8699L24.7808 9.00178L23.3904 7.13369C17.6592 -0.566845 8.33544 -0.566845 2.60425 7.13369L1.21921 9.00178V9.00178ZM13 18C8.97755 18 4.9551 15.9394 1.89315 11.8253L0.14726 9.4795C-0.0490866 9.21569 -0.0490866 8.78788 0.14726 8.51693L1.89315 6.17112C8.01704 -2.05704 17.983 -2.05704 24.1068 6.17112L25.8527 8.51693C26.0491 8.78075 26.0491 9.20856 25.8527 9.4795L24.1068 11.8253C21.0449 15.9394 17.0225 18 13 18V18Z" fill="#00D1FF"/>
<path d="M13.0001 3.83251C10.8775 3.83251 9.1528 6.1498 9.1528 9.00185C9.1528 11.8539 10.8775 14.1712 13.0001 14.1712C15.1228 14.1712 16.8475 11.8539 16.8475 9.00185C16.8475 6.1498 15.1228 3.83251 13.0001 3.83251ZM13.0001 15.5259C10.3203 15.5259 8.14453 12.5954 8.14453 9.00185C8.14453 5.40113 10.3256 2.47778 13.0001 2.47778C15.6747 2.47778 17.8557 5.40826 17.8557 9.00185C17.8557 12.6026 15.68 15.5259 13.0001 15.5259Z" fill="#00D1FF"/>
</g>
<defs>
<clipPath id="clip0_6_32">
<rect width="26" height="18" fill="white"/>
</clipPath>
</defs>
</svg>
