<svg width="53" height="62" viewBox="0 0 53 62" fill="none" xmlns="http://www.w3.org/2000/svg">
<path d="M28.6666 38.3806V60.3333H0.333253C0.332374 56.8735 1.12353 53.4593 2.6461 50.3526C4.16868 47.2458 6.38225 44.5286 9.11721 42.4096C11.8522 40.2905 15.0359 38.8257 18.4247 38.1273C21.813 37.4292 25.3167 37.5156 28.6666 38.3806ZM22.9999 34.8333C13.6074 34.8333 5.99992 27.2258 5.99992 17.8333C5.99992 8.44075 13.6074 0.833252 22.9999 0.833252C32.3924 0.833252 39.9999 8.44075 39.9999 17.8333C39.9999 27.2258 32.3924 34.8333 22.9999 34.8333ZM41.6603 46.1666L36.4781 40.9873L40.4873 36.9781L52.5063 48.9999L40.4873 61.0218L36.4781 57.0126L41.6603 51.8333H31.4999V46.1666H41.6603Z" fill="#00D1FF"/>
</svg>
