<svg width="10" height="10" viewBox="0 0 10 10" fill="none" xmlns="http://www.w3.org/2000/svg">
<path d="M9.78936 5.4992C9.50965 5.77891 9.06465 5.77891 8.78491 5.4992L5.00232 1.71662L1.21974 5.4992C0.940031 5.77891 0.495023 5.77891 0.215288 5.4992C-0.0644196 5.2195 -0.0644196 4.77449 0.215288 4.49475L4.50011 0.20993C4.77982 -0.0697776 5.22483 -0.0697776 5.50456 0.20993L9.78936 4.49473C10.0627 4.77443 10.0627 5.21944 9.78936 5.4992V5.4992Z" fill="#FF0000"/>
<path d="M9.78936 9.79022C9.50965 10.0699 9.06465 10.0699 8.78491 9.79022L5.00232 6.00763L1.21977 9.79022C0.940059 10.0699 0.495052 10.0699 0.215317 9.79022C-0.0644188 9.51051 -0.0643908 9.06551 0.215317 8.78577L4.50011 4.50097C4.77982 4.22127 5.22483 4.22127 5.50456 4.50097L9.78936 8.7794C10.0627 9.05914 10.0627 9.51048 9.78936 9.79022V9.79022Z" fill="#FF0000"/>
</svg>
