<svg width="20" height="20" viewBox="0 0 20 20" fill="none" xmlns="http://www.w3.org/2000/svg">
<g clip-path="url(#clip0_121_236)">
<path d="M0.421281 9.00184C0.980696 8.44242 1.87071 8.44242 2.43018 9.00184L9.99535 16.567L17.5605 9.00184C18.1199 8.44242 19.01 8.44242 19.5694 9.00184C20.1288 9.56125 20.1288 10.4513 19.5694 11.0107L10.9998 19.5804C10.4404 20.1398 9.55034 20.1398 8.99087 19.5804L0.421281 11.0108C-0.125453 10.4514 -0.125453 9.56136 0.421281 9.00184Z" fill="#00D1FF"/>
<path d="M0.421281 0.419561C0.980696 -0.139854 1.87071 -0.139854 2.43018 0.419561L9.99535 7.98473L17.5605 0.419561C18.1199 -0.139854 19.0099 -0.139854 19.5694 0.419561C20.1288 0.978976 20.1288 1.86899 19.5694 2.42846L10.9998 10.9981C10.4404 11.5575 9.55034 11.5575 8.99087 10.9981L0.421281 2.4412C-0.125453 1.88173 -0.125453 0.979032 0.421281 0.419561Z" fill="#00D1FF"/>
</g>
<defs>
<clipPath id="clip0_121_236">
<rect width="20" height="20" fill="white"/>
</clipPath>
</defs>
</svg>
