<svg width="16" height="16" viewBox="0 0 16 16" fill="none" xmlns="http://www.w3.org/2000/svg">
<path fill-rule="evenodd" clip-rule="evenodd" d="M9.27302 1.63185C9.27302 1.11717 8.85702 0.699951 8.34377 0.699951C7.8306 0.699951 7.4146 1.11717 7.4146 1.63185V7.22329H1.70702C1.19381 7.22329 0.777771 7.64047 0.777771 8.15519C0.777771 8.66982 1.1938 9.08701 1.70701 9.08701H7.4146V14.8109C7.4146 15.3256 7.8306 15.7428 8.34377 15.7428C8.85702 15.7428 9.27302 15.3256 9.27302 14.8109V9.08701H14.8485C15.3618 9.08701 15.7778 8.66982 15.7778 8.15519C15.7778 7.64047 15.3618 7.22329 14.8485 7.22329H9.27302V1.63185Z" fill="white"/>
</svg>
