<svg width="27" height="27" viewBox="0 0 27 27" fill="none" xmlns="http://www.w3.org/2000/svg">
<g clip-path="url(#clip0_112_60)">
<path d="M26.1824 23.9998L17.1824 15.3598C18.5758 13.6408 19.2343 11.4766 19.0238 9.3079C18.8133 7.13918 17.7497 5.12902 16.0495 3.68676C14.3493 2.2445 12.1404 1.47859 9.87256 1.545C7.60475 1.61141 5.44858 2.50515 3.84311 4.04421C2.23764 5.58328 1.30362 7.65194 1.23123 9.82894C1.15884 12.0059 1.95353 14.1276 3.45348 15.7618C4.95343 17.396 7.04584 18.42 9.30462 18.6251C11.5634 18.8302 13.8187 18.2011 15.6112 16.8659L24.6112 25.5059L26.1824 23.9998ZM3.50014 10.1331C3.50014 8.8673 3.89113 7.62993 4.62367 6.57745C5.35622 5.52498 6.39741 4.70467 7.61558 4.22027C8.83376 3.73587 10.1742 3.60913 11.4674 3.85607C12.7606 4.10302 13.9485 4.71256 14.8808 5.60762C15.8132 6.50267 16.4481 7.64304 16.7054 8.88452C16.9626 10.126 16.8306 11.4128 16.326 12.5823C15.8214 13.7517 14.9669 14.7513 13.8706 15.4545C12.7743 16.1577 11.4853 16.5331 10.1668 16.5331C8.39924 16.5314 6.70457 15.8566 5.45471 14.6567C4.20485 13.4568 3.5019 11.83 3.50014 10.1331Z" fill="#B5BBBE"/>
</g>
<defs>
<clipPath id="clip0_112_60">
<rect width="26.6667" height="25.6" fill="white" transform="translate(0.166748 0.533203)"/>
</clipPath>
</defs>
</svg>
