<svg width="26" height="25" viewBox="0 0 26 25" fill="none" xmlns="http://www.w3.org/2000/svg">
<path d="M25.1822 22.9998L16.1822 14.3598C17.5756 12.6408 18.2341 10.4766 18.0237 8.3079C17.8132 6.13918 16.7496 4.12902 15.0494 2.68676C13.3492 1.2445 11.1402 0.478588 8.87244 0.545C6.60463 0.611412 4.44845 1.50515 2.84299 3.04421C1.23752 4.58328 0.303496 6.65194 0.231107 8.82894C0.158718 11.0059 0.953411 13.1276 2.45336 14.7618C3.95331 16.396 6.04571 17.42 8.30449 17.6251C10.5633 17.8302 12.8186 17.2011 14.6111 15.8659L23.6111 24.5059L25.1822 22.9998ZM2.50002 9.1331C2.50002 7.8673 2.89101 6.62993 3.62355 5.57745C4.3561 4.52498 5.39729 3.70467 6.61546 3.22027C7.83363 2.73587 9.17408 2.60913 10.4673 2.85607C11.7605 3.10302 12.9484 3.71256 13.8807 4.60762C14.8131 5.50267 15.448 6.64304 15.7053 7.88452C15.9625 9.126 15.8305 10.4128 15.3259 11.5823C14.8213 12.7517 13.9668 13.7513 12.8705 14.4545C11.7742 15.1577 10.4852 15.5331 9.16668 15.5331C7.39912 15.5314 5.70445 14.8566 4.45459 13.6567C3.20473 12.4568 2.50178 10.83 2.50002 9.1331Z" fill="white" fill-opacity="0.5"/>
</svg>
