<svg width="18" height="18" viewBox="0 0 18 18" fill="none" xmlns="http://www.w3.org/2000/svg">
<path d="M16.2998 2.37054C15.3783 1.45204 14.1303 0.936279 12.8292 0.936279C11.5281 0.936279 10.2801 1.45204 9.35857 2.37054L1.28169 10.4468C0.954194 10.769 0.69373 11.1529 0.515322 11.5763C0.336915 11.9997 0.244095 12.4542 0.242217 12.9136C0.240338 13.3731 0.329437 13.8283 0.504375 14.2532C0.679314 14.678 0.93663 15.064 1.26148 15.3889C1.58634 15.7138 1.9723 15.9711 2.39711 16.1461C2.82192 16.3211 3.27717 16.4103 3.7366 16.4085C4.19604 16.4066 4.65057 16.3139 5.07398 16.1355C5.49739 15.9572 5.8813 15.6967 6.20357 15.3693L13.7761 7.79741C14.1558 7.4097 14.3686 6.88858 14.3686 6.34585C14.3686 5.80312 14.1558 5.282 13.7761 4.89429C13.3849 4.52119 12.8651 4.31304 12.3245 4.31304C11.7839 4.31304 11.2641 4.52119 10.8729 4.89429L3.80544 11.9618C3.69759 12.0806 3.63954 12.2363 3.64332 12.3967C3.6471 12.5571 3.71241 12.7098 3.82574 12.8234C3.93906 12.937 4.09172 13.0026 4.2521 13.0067C4.41249 13.0109 4.56831 12.9531 4.68732 12.8455L11.7573 5.77866C11.91 5.63228 12.1133 5.55056 12.3248 5.55056C12.5363 5.55056 12.7396 5.63228 12.8923 5.77866C13.0404 5.93043 13.1234 6.13409 13.1234 6.34616C13.1234 6.55823 13.0404 6.76189 12.8923 6.91366L5.31982 14.4855C4.90144 14.9038 4.33403 15.1388 3.74241 15.1387C3.15079 15.1387 2.58343 14.9036 2.16513 14.4852C1.74683 14.0668 1.51187 13.4994 1.51193 12.9078C1.51199 12.3162 1.74706 11.7488 2.16544 11.3305L10.2423 3.25429C10.9316 2.58395 11.8571 2.2119 12.8186 2.2186C13.7801 2.22531 14.7003 2.61024 15.3802 3.29014C16.0601 3.97003 16.445 4.89024 16.4517 5.85174C16.4585 6.81323 16.0864 7.73872 15.4161 8.42804L7.84419 15.9999C7.73034 16.1178 7.66735 16.2757 7.66877 16.4395C7.6702 16.6034 7.73593 16.7602 7.85181 16.876C7.96769 16.9919 8.12444 17.0577 8.28832 17.0591C8.45219 17.0605 8.61007 16.9975 8.72794 16.8837L16.2998 9.31241C17.219 8.39112 17.7352 7.14286 17.7352 5.84147C17.7352 4.54008 17.219 3.29183 16.2998 2.37054Z" fill="white"/>
</svg>
